<svg width="150" height="150" viewBox="0 0 150 150" fill="none" xmlns="http://www.w3.org/2000/svg">
<line x1="93.9295" y1="16.9445" x2="93.4563" y2="58.0835" stroke="black" stroke-width="1.10801"/>
<line x1="138.354" y1="35.2379" x2="120.384" y2="59.458" stroke="black" stroke-width="1.10801"/>
<line x1="95.3149" y1="14.3623" x2="138.144" y2="34.406" stroke="black" stroke-width="1.10801"/>
<circle cx="92.9849" cy="14.9849" r="8.98486" fill="#58DAA3"/>
<circle cx="92.9849" cy="55.9814" r="8.98486" fill="#58DAA3"/>
<circle cx="119.549" cy="57.9559" r="8.98486" fill="#58DAA3"/>
<circle cx="137.519" cy="35.2984" r="8.98486" fill="#58DAA3"/>
<line x1="61.3755" y1="95.3841" x2="87.9394" y2="95.3841" stroke="black" stroke-width="1.10801"/>
<line x1="106.354" y1="114.238" x2="88.3844" y2="138.458" stroke="black" stroke-width="1.10801"/>
<line x1="88.3312" y1="95.5463" x2="106.301" y2="113.516" stroke="black" stroke-width="1.10801"/>
<circle cx="60.9849" cy="93.9849" r="8.98486" fill="#E89797"/>
<circle cx="87.5488" cy="93.9849" r="8.98486" fill="#E89797"/>
<circle cx="87.5488" cy="136.956" r="8.98486" fill="#E89797"/>
<circle cx="105.519" cy="114.298" r="8.98486" fill="#E89797"/>
<line x1="11.714" y1="33.8323" x2="26.1874" y2="16.3118" stroke="black" stroke-width="1.10801"/>
<line x1="12.6135" y1="33.8956" x2="27.0869" y2="57.5101" stroke="black" stroke-width="1.10801"/>
<line x1="12.1411" y1="33.6311" x2="44.135" y2="33.6311" stroke="black" stroke-width="1.10801"/>
<line x1="44.5799" y1="33.855" x2="62.1004" y2="57.4695" stroke="black" stroke-width="1.10801"/>
<circle cx="11.7602" cy="34.566" r="8.76023" fill="#AC97E8"/>
<circle cx="26.2336" cy="14.7602" r="8.76023" fill="#AC97E8"/>
<circle cx="26.2336" cy="56.657" r="8.76023" fill="#AC97E8"/>
<circle cx="43.7541" cy="34.566" r="8.76023" fill="#AC97E8"/>
<circle cx="61.2745" cy="58.1805" r="8.76023" fill="#AC97E8"/>
</svg>
