<svg width="129" height="24" viewBox="0 0 129 24" fill="none" xmlns="http://www.w3.org/2000/svg">
<path d="M8.048 16.608C9.12 16.608 10.008 16.408 10.712 16.008C11.432 15.592 12 15.056 12.416 14.4C12.848 13.728 13.144 12.968 13.304 12.12C13.48 11.272 13.568 10.416 13.568 9.552V0.959999H15.248V9.552C15.248 10.704 15.12 11.8 14.864 12.84C14.608 13.864 14.192 14.768 13.616 15.552C13.056 16.336 12.32 16.96 11.408 17.424C10.496 17.888 9.384 18.12 8.072 18.12C6.712 18.12 5.576 17.88 4.664 17.4C3.752 16.904 3.016 16.256 2.456 15.456C1.896 14.656 1.496 13.744 1.256 12.72C1.016 11.696 0.896 10.64 0.896 9.552V0.959999H2.552V9.552C2.552 10.448 2.64 11.32 2.816 12.168C2.992 13.016 3.288 13.768 3.704 14.424C4.136 15.08 4.704 15.608 5.408 16.008C6.112 16.408 6.992 16.608 8.048 16.608ZM29.2406 18H27.6086V11.016C27.6086 9.528 27.3926 8.448 26.9606 7.776C26.5286 7.104 25.8566 6.768 24.9446 6.768C24.4646 6.768 23.9846 6.856 23.5046 7.032C23.0246 7.208 22.5766 7.456 22.1606 7.776C21.7446 8.096 21.3766 8.48 21.0566 8.928C20.7526 9.36 20.5206 9.832 20.3606 10.344V18H18.7286V5.496H20.2166V8.328C20.4726 7.88 20.7846 7.472 21.1526 7.104C21.5366 6.72 21.9606 6.392 22.4246 6.12C22.8886 5.848 23.3766 5.64 23.8886 5.496C24.4166 5.352 24.9606 5.28 25.5206 5.28C26.2246 5.28 26.8086 5.408 27.2726 5.664C27.7526 5.92 28.1366 6.28 28.4246 6.744C28.7126 7.208 28.9206 7.776 29.0486 8.448C29.1766 9.12 29.2406 9.864 29.2406 10.68V18ZM37.811 18.24C36.947 18.24 36.147 18.064 35.411 17.712C34.675 17.344 34.035 16.864 33.491 16.272C32.963 15.68 32.547 15 32.243 14.232C31.955 13.448 31.811 12.632 31.811 11.784C31.811 10.904 31.955 10.072 32.243 9.288C32.531 8.488 32.923 7.792 33.419 7.2C33.931 6.608 34.531 6.144 35.219 5.808C35.923 5.456 36.691 5.28 37.523 5.28C38.579 5.28 39.515 5.56 40.331 6.12C41.147 6.664 41.795 7.328 42.275 8.112V0.48H43.907V15.888C43.907 16.336 44.099 16.56 44.483 16.56V18C44.211 18.048 43.995 18.072 43.835 18.072C43.435 18.072 43.107 17.96 42.851 17.736C42.595 17.496 42.467 17.216 42.467 16.896V15.576C41.955 16.392 41.275 17.04 40.427 17.52C39.595 18 38.723 18.24 37.811 18.24ZM38.147 16.8C38.563 16.8 38.995 16.72 39.443 16.56C39.907 16.4 40.331 16.184 40.715 15.912C41.115 15.624 41.459 15.296 41.747 14.928C42.035 14.544 42.211 14.136 42.275 13.704V9.84C42.115 9.408 41.875 9.008 41.555 8.64C41.251 8.256 40.899 7.92 40.499 7.632C40.115 7.344 39.699 7.12 39.251 6.96C38.819 6.8 38.387 6.72 37.955 6.72C37.283 6.72 36.667 6.864 36.107 7.152C35.563 7.44 35.099 7.824 34.715 8.304C34.331 8.768 34.027 9.304 33.803 9.912C33.595 10.52 33.491 11.144 33.491 11.784C33.491 12.456 33.611 13.096 33.851 13.704C34.091 14.312 34.419 14.848 34.835 15.312C35.251 15.76 35.739 16.12 36.299 16.392C36.875 16.664 37.491 16.8 38.147 16.8ZM53.0521 18.24C52.1401 18.24 51.3001 18.072 50.5321 17.736C49.7641 17.384 49.1001 16.912 48.5401 16.32C47.9801 15.712 47.5401 15.016 47.2201 14.232C46.9161 13.448 46.7641 12.608 46.7641 11.712C46.7641 10.832 46.9161 10.008 47.2201 9.24C47.5401 8.456 47.9801 7.776 48.5401 7.2C49.1001 6.608 49.7561 6.144 50.5081 5.808C51.2761 5.456 52.1161 5.28 53.0281 5.28C53.9401 5.28 54.7721 5.456 55.5241 5.808C56.2921 6.144 56.9481 6.608 57.4921 7.2C58.0361 7.792 58.4601 8.472 58.7641 9.24C59.0681 10.008 59.2201 10.824 59.2201 11.688C59.2201 11.816 59.2121 11.944 59.1961 12.072C59.1961 12.2 59.1881 12.288 59.1721 12.336H48.4921C48.5401 13.008 48.6921 13.632 48.9481 14.208C49.2201 14.768 49.5561 15.256 49.9561 15.672C50.3721 16.088 50.8441 16.416 51.3721 16.656C51.9161 16.88 52.4921 16.992 53.1001 16.992C53.5161 16.992 53.9241 16.936 54.3241 16.824C54.7241 16.712 55.0921 16.56 55.4281 16.368C55.7641 16.176 56.0601 15.944 56.3161 15.672C56.5881 15.384 56.7961 15.072 56.9401 14.736L58.3561 15.12C58.1641 15.584 57.8921 16.008 57.5401 16.392C57.1881 16.76 56.7801 17.088 56.3161 17.376C55.8521 17.648 55.3401 17.856 54.7801 18C54.2201 18.16 53.6441 18.24 53.0521 18.24ZM57.6601 11.088C57.6121 10.416 57.4521 9.808 57.1801 9.264C56.9241 8.704 56.5881 8.224 56.1721 7.824C55.7721 7.424 55.3001 7.112 54.7561 6.888C54.2121 6.664 53.6361 6.552 53.0281 6.552C52.4201 6.552 51.8441 6.664 51.3001 6.888C50.7561 7.112 50.2761 7.424 49.8601 7.824C49.4601 8.224 49.1321 8.704 48.8761 9.264C48.6361 9.824 48.4921 10.432 48.4441 11.088H57.6601ZM67.9061 6.936C66.8021 6.968 65.8421 7.272 65.0261 7.848C64.2101 8.424 63.6341 9.216 63.2981 10.224V18H61.6661V5.496H63.2021V8.496C63.6341 7.616 64.2021 6.888 64.9061 6.312C65.6101 5.72 66.3701 5.424 67.1861 5.424C67.3301 5.424 67.4661 5.424 67.5941 5.424C67.7221 5.424 67.8261 5.432 67.9061 5.448V6.936ZM70.1521 0.48H71.7841V15.168C71.7841 15.632 71.9121 16 72.1681 16.272C72.4241 16.528 72.7841 16.656 73.2481 16.656C73.4241 16.656 73.6321 16.632 73.8721 16.584C74.1121 16.536 74.3361 16.472 74.5441 16.392L74.8321 17.712C74.5281 17.84 74.1521 17.944 73.7041 18.024C73.2721 18.104 72.8961 18.144 72.5761 18.144C71.8241 18.144 71.2321 17.936 70.8001 17.52C70.3681 17.088 70.1521 16.488 70.1521 15.72V0.48ZM79.7203 18.24C79.0803 18.24 78.4963 18.144 77.9683 17.952C77.4403 17.744 76.9843 17.464 76.6003 17.112C76.2323 16.76 75.9443 16.352 75.7363 15.888C75.5283 15.424 75.4243 14.936 75.4243 14.424C75.4243 13.848 75.5523 13.328 75.8083 12.864C76.0643 12.384 76.4243 11.976 76.8883 11.64C77.3523 11.304 77.9043 11.048 78.5443 10.872C79.2003 10.68 79.9203 10.584 80.7043 10.584C81.3283 10.584 81.9683 10.64 82.6243 10.752C83.2803 10.864 83.8643 11.024 84.3763 11.232V10.104C84.3763 9 84.0563 8.128 83.4163 7.488C82.7923 6.832 81.9443 6.504 80.8723 6.504C80.2003 6.504 79.5283 6.632 78.8563 6.888C78.2003 7.144 77.5283 7.512 76.8403 7.992L76.2643 6.912C77.0803 6.368 77.8723 5.96 78.6403 5.688C79.4083 5.416 80.2083 5.28 81.0403 5.28C82.5603 5.28 83.7683 5.72 84.6643 6.6C85.5603 7.48 86.0083 8.696 86.0083 10.248V15.888C86.0083 16.336 86.2003 16.56 86.5843 16.56V18C86.4563 18.016 86.3363 18.024 86.2243 18.024C86.1123 18.04 86.0163 18.048 85.9363 18.048C85.6163 18.048 85.3203 17.952 85.0483 17.76C84.7923 17.568 84.6483 17.28 84.6163 16.896L84.5683 15.912C84.0243 16.648 83.3043 17.224 82.4083 17.64C81.5283 18.04 80.6323 18.24 79.7203 18.24ZM80.1283 16.992C80.8483 16.992 81.5603 16.84 82.2643 16.536C82.9843 16.216 83.5523 15.784 83.9683 15.24C84.0803 15.096 84.1763 14.944 84.2563 14.784C84.3363 14.608 84.3763 14.448 84.3763 14.304V12.264C83.8323 12.056 83.2643 11.896 82.6723 11.784C82.0803 11.672 81.5043 11.616 80.9443 11.616C79.7763 11.616 78.8243 11.856 78.0883 12.336C77.3683 12.8 77.0083 13.448 77.0083 14.28C77.0083 14.616 77.0723 14.944 77.2003 15.264C77.3283 15.584 77.5203 15.872 77.7763 16.128C78.0483 16.384 78.3763 16.592 78.7603 16.752C79.1443 16.912 79.6003 16.992 80.1283 16.992ZM89.8783 21.864C89.9583 21.88 90.0383 21.888 90.1183 21.888C90.1983 21.904 90.2783 21.912 90.3583 21.912C90.5183 21.912 90.6863 21.896 90.8623 21.864C91.0543 21.832 91.1903 21.8 91.2703 21.768C91.3503 21.736 91.4303 21.664 91.5103 21.552C91.6063 21.456 91.7183 21.272 91.8463 21C91.9903 20.744 92.1663 20.376 92.3743 19.896C92.5823 19.432 92.8463 18.8 93.1663 18L87.7183 5.496H89.4223L94.0543 16.488L98.3263 5.496H99.8863L93.3823 21.624C93.1423 22.216 92.8143 22.656 92.3983 22.944C91.9983 23.232 91.4303 23.376 90.6943 23.376C90.3903 23.376 90.1183 23.352 89.8783 23.304V21.864ZM115.186 8.688C114.258 8.704 113.418 8.856 112.666 9.144C111.93 9.432 111.386 9.864 111.034 10.44V18H107.194V5.4H110.722V7.944C111.17 7.096 111.73 6.44 112.402 5.976C113.09 5.496 113.818 5.24 114.586 5.208C114.906 5.208 115.106 5.216 115.186 5.232V8.688ZM128.347 14.544V18H117.979V14.544H121.387V8.424C121.243 8.616 121.011 8.816 120.691 9.024C120.387 9.216 120.051 9.4 119.683 9.576C119.315 9.736 118.931 9.872 118.531 9.984C118.147 10.08 117.803 10.128 117.499 10.128V6.576C117.755 6.576 118.083 6.488 118.483 6.312C118.899 6.136 119.307 5.928 119.707 5.688C120.107 5.432 120.467 5.176 120.787 4.92C121.107 4.664 121.307 4.456 121.387 4.296H125.299V14.544H128.347Z" fill="#333333"/>
</svg>
