<?xml version="1.0" encoding="UTF-8" standalone="no"?>
<svg
   xmlns:dc="http://purl.org/dc/elements/1.1/"
   xmlns:cc="http://creativecommons.org/ns#"
   xmlns:rdf="http://www.w3.org/1999/02/22-rdf-syntax-ns#"
   xmlns:svg="http://www.w3.org/2000/svg"
   xmlns="http://www.w3.org/2000/svg"
   xmlns:sodipodi="http://sodipodi.sourceforge.net/DTD/sodipodi-0.dtd"
   xmlns:inkscape="http://www.inkscape.org/namespaces/inkscape"
   inkscape:version="1.0 (4035a4f, 2020-05-01)"
   sodipodi:docname="Woodpecker Logo.svg"
   viewBox="0 0 333.65332 298.54666"
   height="298.54666"
   width="333.65332"
   xml:space="preserve"
   id="svg10"
   version="1.1"><metadata
     id="metadata16"><rdf:RDF><cc:Work
         rdf:about=""><dc:format>image/svg+xml</dc:format><dc:type
           rdf:resource="http://purl.org/dc/dcmitype/StillImage" /><dc:title></dc:title></cc:Work></rdf:RDF></metadata><defs
     id="defs14" /><sodipodi:namedview
     inkscape:current-layer="g18"
     inkscape:window-maximized="0"
     inkscape:window-y="23"
     inkscape:window-x="0"
     inkscape:cy="149.27333"
     inkscape:cx="166.82666"
     inkscape:zoom="2.1099745"
     showgrid="false"
     id="namedview12"
     inkscape:window-height="480"
     inkscape:window-width="784"
     inkscape:pageshadow="2"
     inkscape:pageopacity="0"
     guidetolerance="10"
     gridtolerance="10"
     objecttolerance="10"
     borderopacity="1"
     bordercolor="#666666"
     pagecolor="#ffffff" /><g
     transform="matrix(1.3333333,0,0,-1.3333333,0,298.54667)"
     inkscape:label="ink_ext_XXXXXX"
     inkscape:groupmode="layer"
     id="g18"><g
       transform="scale(0.1)"
       id="g20"><path
         id="path22"
         style="fill:#211c1c;fill-opacity:1;fill-rule:nonzero;stroke:none"
         d="m 1102.21,531.461 c 51.56,-10.66 104.9,-16.391 159.57,-16.391 h 17.82 L 854.953,181.609 H 656.691 Z M 617.941,1301.98 v 225.5 c 0,181.37 147.551,328.91 328.922,328.91 h 46.41 C 883.156,1748.47 814.391,1598.62 814.391,1432.54 c 0,-328.39 267.169,-595.56 595.549,-595.56 h 450.88 l 227.75,-178.839 h -826.79 c -355.014,0 -643.839,288.82 -643.839,643.839 z M 1511.27,515.07 h 991.15 L 1025.37,1674.93 c 36.82,61.42 86.9,113.97 146.08,152.11 40.69,26.21 87.46,41.51 135.67,45.76 l 366,32.25 v 47.76 l -409.16,79.58 v 0.07 c -63.23,16.69 -123.65,59.1 -178.87,96.03 l -50.47,33.75 -6.18,3.69 c -12.61,6.72 -23.76,12.91 -33.944,18.59 -56.992,31.7 -98.183,54.6 -192.496,54.6 H 221.625 l 268.559,-220.59 c -9.895,-32.9 -15.313,-68.53 -15.313,-106.54 v -384.51 -225.5 -44.71 h 1.352 C 493.09,957.73 678.273,702.551 938.43,584.762 L 425.027,181.609 H 0.00390625 V 0 L 2502.42,0 v 181.609 h -1415.8 l 424.65,333.461" /><path
         id="path24"
         style="fill:#211c1c;fill-opacity:1;fill-rule:nonzero;stroke:none"
         d="m 1678.62,980.059 h -268.68 c -249.5,0 -452.471,202.971 -452.471,452.481 0,35.56 4.219,70.52 12.031,104.35 l 709.12,-556.831" /><path
         id="path26"
         style="fill:#e62224;fill-opacity:1;fill-rule:nonzero;stroke:none"
         d="m 924.953,2059.48 c 10.02,-5.58 20.891,-11.61 33.07,-18.14 l 47.517,-31.78 c 5.43,-3.63 11.16,-6.62 16.65,-10.09 h -75.327 c -127.863,0 -243.832,-51.29 -328.922,-134.15 v 46.67 c 0,135.7 95.082,184.06 184.059,184.06 57.203,0 72.445,-8.48 122.953,-36.57" /></g></g></svg>
