<svg width="200" height="200" viewBox="0 0 200 200" fill="none" xmlns="http://www.w3.org/2000/svg">
<rect x="0.25" y="0.25" width="199.5" height="199.5" fill="white"/>
<rect x="105.133" y="15.1329" width="74.1487" height="58.7342" fill="white" stroke="black" stroke-width="0.265766"/>
<line y1="-0.304783" x2="7.66809" y2="-0.304783" transform="matrix(0.636881 -0.770962 0.770961 0.636882 154.931 58.9022)" stroke="black" stroke-width="0.609566"/>
<line y1="-0.304783" x2="9.34561" y2="-0.304783" transform="matrix(0.522561 0.852602 -0.852601 0.522563 154.931 58.9022)" stroke="black" stroke-width="0.609566"/>
<line x1="154.931" y1="58.5974" x2="165.727" y2="58.5974" stroke="black" stroke-width="0.609566"/>
<line y1="-0.304783" x2="9.92168" y2="-0.304783" transform="matrix(0.595844 0.8031 -0.803096 0.59585 165.727 58.9022)" stroke="black" stroke-width="0.609566"/>
<circle cx="154.803" cy="59.0307" r="2.9559" fill="#AC97E8"/>
<circle cx="159.686" cy="52.3478" r="2.9559" fill="#AC97E8"/>
<circle cx="159.686" cy="66.4847" r="2.9559" fill="#AC97E8"/>
<circle cx="165.598" cy="59.0307" r="2.9559" fill="#AC97E8"/>
<circle cx="171.51" cy="66.9988" r="2.9559" fill="#E8B497"/>
<line x1="140.055" y1="52.404" x2="149.019" y2="52.404" stroke="black" stroke-width="0.609566"/>
<line x1="155.327" y1="58.9538" x2="149.263" y2="67.1262" stroke="black" stroke-width="0.609566"/>
<line x1="149.234" y1="52.4933" x2="155.298" y2="58.5566" stroke="black" stroke-width="0.609566"/>
<circle cx="139.924" cy="52.0497" r="3.03169" fill="#E89797"/>
<circle cx="148.887" cy="52.0497" r="3.03169" fill="#E89797"/>
<circle cx="148.887" cy="66.5491" r="3.03169" fill="#E89797"/>
<circle cx="154.878" cy="59.1532" r="3.03169" fill="#A99E9E"/>
<circle cx="159.739" cy="66.6306" r="3.03169" fill="#A99E9E"/>
<rect x="109.252" y="21.9099" width="58.6227" height="3.48944" fill="#CACACA"/>
<rect x="109.252" y="29.3514" width="42.3037" height="1.75026" fill="#CACACA"/>
<path d="M109.252 32.8519H145.787V34.6021H109.252V32.8519Z" fill="#CACACA"/>
<path d="M109.252 36.3524H148.992V38.1027H109.252V36.3524Z" fill="#CACACA"/>
<path d="M109.252 40.0717H152.838V41.822H109.252V40.0717Z" fill="#CACACA"/>
<rect x="109.252" y="46.8919" width="18.5723" height="1.75026" fill="#CACACA"/>
<path d="M109.252 50.3924H125.292V52.1427H109.252V50.3924Z" fill="#CACACA"/>
<path d="M109.252 53.8929H126.699V55.6432H109.252V53.8929Z" fill="#CACACA"/>
<path d="M109.252 57.6122H128.387V59.3625H109.252V57.6122Z" fill="#CACACA"/>
<rect x="98.1329" y="23.1329" width="74.1487" height="58.7342" fill="white" stroke="black" stroke-width="0.265766"/>
<line y1="-0.304783" x2="7.66809" y2="-0.304783" transform="matrix(0.636881 -0.770962 0.770961 0.636882 147.931 66.9022)" stroke="black" stroke-width="0.609566"/>
<line y1="-0.304783" x2="9.34561" y2="-0.304783" transform="matrix(0.522561 0.852602 -0.852601 0.522563 147.931 66.9022)" stroke="black" stroke-width="0.609566"/>
<line x1="147.931" y1="66.5974" x2="158.727" y2="66.5974" stroke="black" stroke-width="0.609566"/>
<line y1="-0.304783" x2="9.92168" y2="-0.304783" transform="matrix(0.595844 0.8031 -0.803096 0.59585 158.727 66.9022)" stroke="black" stroke-width="0.609566"/>
<circle cx="147.803" cy="67.0307" r="2.9559" fill="#AC97E8"/>
<circle cx="152.686" cy="60.3478" r="2.9559" fill="#AC97E8"/>
<circle cx="152.686" cy="74.4847" r="2.9559" fill="#AC97E8"/>
<circle cx="158.598" cy="67.0307" r="2.9559" fill="#AC97E8"/>
<circle cx="164.51" cy="74.9988" r="2.9559" fill="#98E897"/>
<line x1="133.055" y1="60.404" x2="142.019" y2="60.404" stroke="black" stroke-width="0.609566"/>
<line x1="148.327" y1="66.9538" x2="142.263" y2="75.1262" stroke="black" stroke-width="0.609566"/>
<line x1="142.234" y1="60.4933" x2="148.298" y2="66.5566" stroke="black" stroke-width="0.609566"/>
<circle cx="132.924" cy="60.0497" r="3.03169" fill="#E89797"/>
<circle cx="141.887" cy="60.0497" r="3.03169" fill="#E89797"/>
<circle cx="141.887" cy="74.5491" r="3.03169" fill="#E89797"/>
<circle cx="147.878" cy="67.1532" r="3.03169" fill="#A99E9E"/>
<circle cx="152.739" cy="74.6306" r="3.03169" fill="#A99E9E"/>
<rect x="102.252" y="29.9099" width="58.6227" height="3.48944" fill="#CACACA"/>
<rect x="102.252" y="37.3514" width="42.3037" height="1.75026" fill="#CACACA"/>
<path d="M102.252 40.8519H138.787V42.6021H102.252V40.8519Z" fill="#CACACA"/>
<path d="M102.252 44.3524H141.992V46.1027H102.252V44.3524Z" fill="#CACACA"/>
<path d="M102.252 48.0717H145.838V49.822H102.252V48.0717Z" fill="#CACACA"/>
<rect x="102.252" y="54.8919" width="18.5723" height="1.75026" fill="#CACACA"/>
<path d="M102.252 58.3924H118.292V60.1427H102.252V58.3924Z" fill="#CACACA"/>
<path d="M102.252 61.8929H119.699V63.6432H102.252V61.8929Z" fill="#CACACA"/>
<path d="M102.252 65.6122H121.387V67.3625H102.252V65.6122Z" fill="#CACACA"/>
<rect x="89.1329" y="35.1329" width="74.1487" height="58.7342" fill="white" stroke="black" stroke-width="0.265766"/>
<line y1="-0.304783" x2="7.66809" y2="-0.304783" transform="matrix(0.636881 -0.770962 0.770961 0.636882 138.931 78.9022)" stroke="black" stroke-width="0.609566"/>
<line y1="-0.304783" x2="9.34561" y2="-0.304783" transform="matrix(0.522561 0.852602 -0.852601 0.522563 138.931 78.9022)" stroke="black" stroke-width="0.609566"/>
<line x1="138.931" y1="78.5974" x2="149.727" y2="78.5974" stroke="black" stroke-width="0.609566"/>
<line y1="-0.304783" x2="9.92168" y2="-0.304783" transform="matrix(0.595844 0.8031 -0.803096 0.59585 149.727 78.9022)" stroke="black" stroke-width="0.609566"/>
<circle cx="138.803" cy="79.0307" r="2.9559" fill="#AC97E8"/>
<circle cx="143.686" cy="72.3478" r="2.9559" fill="#AC97E8"/>
<circle cx="143.686" cy="86.4847" r="2.9559" fill="#AC97E8"/>
<circle cx="149.598" cy="79.0307" r="2.9559" fill="#AC97E8"/>
<circle cx="155.51" cy="86.9988" r="2.9559" fill="#AC97E8"/>
<line x1="124.055" y1="72.404" x2="133.019" y2="72.404" stroke="black" stroke-width="0.609566"/>
<line x1="139.327" y1="78.9538" x2="133.263" y2="87.1262" stroke="black" stroke-width="0.609566"/>
<line x1="133.234" y1="72.4933" x2="139.298" y2="78.5566" stroke="black" stroke-width="0.609566"/>
<circle cx="123.924" cy="72.0497" r="3.03169" fill="#E89797"/>
<circle cx="132.887" cy="72.0497" r="3.03169" fill="#E89797"/>
<circle cx="132.887" cy="86.5491" r="3.03169" fill="#E89797"/>
<circle cx="138.878" cy="79.1532" r="3.03169" fill="#A99E9E"/>
<circle cx="143.739" cy="86.6306" r="3.03169" fill="#A99E9E"/>
<rect x="93.2522" y="41.9099" width="58.6227" height="3.48944" fill="#CACACA"/>
<rect x="93.2522" y="49.3514" width="42.3037" height="1.75026" fill="#CACACA"/>
<path d="M93.2522 52.8519H129.787V54.6021H93.2522V52.8519Z" fill="#CACACA"/>
<path d="M93.2522 56.3524H132.992V58.1027H93.2522V56.3524Z" fill="#CACACA"/>
<path d="M93.2522 60.0717H136.838V61.822H93.2522V60.0717Z" fill="#CACACA"/>
<rect x="93.2522" y="66.8919" width="18.5723" height="1.75026" fill="#CACACA"/>
<path d="M93.2522 70.3924H109.292V72.1427H93.2522V70.3924Z" fill="#CACACA"/>
<path d="M93.2522 73.8929H110.699V75.6432H93.2522V73.8929Z" fill="#CACACA"/>
<path d="M93.2522 77.6122H112.387V79.3625H93.2522V77.6122Z" fill="#CACACA"/>
<rect x="102.133" y="106.133" width="74.1487" height="58.7342" fill="white" stroke="black" stroke-width="0.265766"/>
<line y1="-0.304783" x2="7.66809" y2="-0.304783" transform="matrix(0.636881 -0.770962 0.770961 0.636882 151.931 149.902)" stroke="black" stroke-width="0.609566"/>
<line y1="-0.304783" x2="9.34561" y2="-0.304783" transform="matrix(0.522561 0.852602 -0.852601 0.522563 151.931 149.902)" stroke="black" stroke-width="0.609566"/>
<line x1="151.931" y1="149.597" x2="162.727" y2="149.597" stroke="black" stroke-width="0.609566"/>
<line y1="-0.304783" x2="9.92168" y2="-0.304783" transform="matrix(0.595844 0.8031 -0.803096 0.59585 162.727 149.902)" stroke="black" stroke-width="0.609566"/>
<circle cx="151.803" cy="150.031" r="2.9559" fill="#AC97E8"/>
<circle cx="156.686" cy="143.348" r="2.9559" fill="#AC97E8"/>
<circle cx="156.686" cy="157.485" r="2.9559" fill="#AC97E8"/>
<circle cx="162.598" cy="150.031" r="2.9559" fill="#AC97E8"/>
<circle cx="168.51" cy="157.999" r="2.9559" fill="#97CBE8"/>
<line x1="137.055" y1="143.404" x2="146.019" y2="143.404" stroke="black" stroke-width="0.609566"/>
<line x1="152.327" y1="149.954" x2="146.263" y2="158.126" stroke="black" stroke-width="0.609566"/>
<line x1="146.234" y1="143.493" x2="152.298" y2="149.557" stroke="black" stroke-width="0.609566"/>
<circle cx="136.924" cy="143.05" r="3.03169" fill="#E89797"/>
<circle cx="145.887" cy="143.05" r="3.03169" fill="#E89797"/>
<circle cx="145.887" cy="157.549" r="3.03169" fill="#E89797"/>
<circle cx="151.878" cy="150.153" r="3.03169" fill="#A99E9E"/>
<circle cx="156.739" cy="157.631" r="3.03169" fill="#A99E9E"/>
<rect x="106.252" y="112.91" width="58.6227" height="3.48944" fill="#CACACA"/>
<rect x="106.252" y="120.351" width="42.3037" height="1.75026" fill="#CACACA"/>
<path d="M106.252 123.852H142.787V125.602H106.252V123.852Z" fill="#CACACA"/>
<path d="M106.252 127.352H145.992V129.103H106.252V127.352Z" fill="#CACACA"/>
<path d="M106.252 131.072H149.838V132.822H106.252V131.072Z" fill="#CACACA"/>
<rect x="106.252" y="137.892" width="18.5723" height="1.75026" fill="#CACACA"/>
<path d="M106.252 141.392H122.292V143.143H106.252V141.392Z" fill="#CACACA"/>
<path d="M106.252 144.893H123.699V146.643H106.252V144.893Z" fill="#CACACA"/>
<path d="M106.252 148.612H125.387V150.363H106.252V148.612Z" fill="#CACACA"/>
<rect x="95.1329" y="114.133" width="74.1487" height="58.7342" fill="white" stroke="black" stroke-width="0.265766"/>
<line y1="-0.304783" x2="7.66809" y2="-0.304783" transform="matrix(0.636881 -0.770962 0.770961 0.636882 144.931 157.902)" stroke="black" stroke-width="0.609566"/>
<line y1="-0.304783" x2="9.34561" y2="-0.304783" transform="matrix(0.522561 0.852602 -0.852601 0.522563 144.931 157.902)" stroke="black" stroke-width="0.609566"/>
<line x1="144.931" y1="157.597" x2="155.727" y2="157.597" stroke="black" stroke-width="0.609566"/>
<line y1="-0.304783" x2="9.92168" y2="-0.304783" transform="matrix(0.595844 0.8031 -0.803096 0.59585 155.727 157.902)" stroke="black" stroke-width="0.609566"/>
<circle cx="144.803" cy="158.031" r="2.9559" fill="#AC97E8"/>
<circle cx="149.686" cy="151.348" r="2.9559" fill="#AC97E8"/>
<circle cx="149.686" cy="165.485" r="2.9559" fill="#AC97E8"/>
<circle cx="155.598" cy="158.031" r="2.9559" fill="#AC97E8"/>
<circle cx="161.51" cy="165.999" r="2.9559" fill="#DD97E8"/>
<line x1="130.055" y1="151.404" x2="139.019" y2="151.404" stroke="black" stroke-width="0.609566"/>
<line x1="145.327" y1="157.954" x2="139.263" y2="166.126" stroke="black" stroke-width="0.609566"/>
<line x1="139.234" y1="151.493" x2="145.298" y2="157.557" stroke="black" stroke-width="0.609566"/>
<circle cx="129.924" cy="151.05" r="3.03169" fill="#E89797"/>
<circle cx="138.887" cy="151.05" r="3.03169" fill="#E89797"/>
<circle cx="138.887" cy="165.549" r="3.03169" fill="#E89797"/>
<circle cx="144.878" cy="158.153" r="3.03169" fill="#A99E9E"/>
<circle cx="149.739" cy="165.631" r="3.03169" fill="#A99E9E"/>
<rect x="99.2522" y="120.91" width="58.6227" height="3.48944" fill="#CACACA"/>
<rect x="99.2522" y="128.351" width="42.3037" height="1.75026" fill="#CACACA"/>
<path d="M99.2522 131.852H135.787V133.602H99.2522V131.852Z" fill="#CACACA"/>
<path d="M99.2522 135.352H138.992V137.103H99.2522V135.352Z" fill="#CACACA"/>
<path d="M99.2522 139.072H142.838V140.822H99.2522V139.072Z" fill="#CACACA"/>
<rect x="99.2522" y="145.892" width="18.5723" height="1.75026" fill="#CACACA"/>
<path d="M99.2522 149.392H115.292V151.143H99.2522V149.392Z" fill="#CACACA"/>
<path d="M99.2522 152.893H116.699V154.643H99.2522V152.893Z" fill="#CACACA"/>
<path d="M99.2522 156.612H118.387V158.363H99.2522V156.612Z" fill="#CACACA"/>
<rect x="86.1329" y="126.133" width="74.1487" height="58.7342" fill="white" stroke="black" stroke-width="0.265766"/>
<line y1="-0.304783" x2="7.66809" y2="-0.304783" transform="matrix(0.636881 -0.770962 0.770961 0.636882 135.931 169.902)" stroke="black" stroke-width="0.609566"/>
<line x1="135.931" y1="169.597" x2="146.727" y2="169.597" stroke="black" stroke-width="0.609566"/>
<line y1="-0.304783" x2="9.92168" y2="-0.304783" transform="matrix(0.595844 0.8031 -0.803096 0.59585 146.727 169.902)" stroke="black" stroke-width="0.609566"/>
<circle cx="135.803" cy="170.031" r="2.9559" fill="#AC97E8"/>
<circle cx="140.686" cy="163.348" r="2.9559" fill="#AC97E8"/>
<circle cx="146.598" cy="170.031" r="2.9559" fill="#AC97E8"/>
<circle cx="152.51" cy="177.999" r="2.9559" fill="#AC97E8"/>
<line x1="121.055" y1="163.404" x2="130.019" y2="163.404" stroke="black" stroke-width="0.609566"/>
<line x1="136.327" y1="169.954" x2="130.263" y2="178.126" stroke="black" stroke-width="0.609566"/>
<line x1="130.234" y1="163.493" x2="136.298" y2="169.557" stroke="black" stroke-width="0.609566"/>
<circle cx="120.924" cy="163.05" r="3.03169" fill="#97E8A4"/>
<circle cx="129.887" cy="163.05" r="3.03169" fill="#97E8A4"/>
<circle cx="129.887" cy="177.549" r="3.03169" fill="#97E8A4"/>
<circle cx="135.878" cy="170.153" r="3.03169" fill="#A99E9E"/>
<rect x="90.2522" y="132.91" width="58.6227" height="3.48944" fill="#CACACA"/>
<rect x="90.2522" y="140.351" width="42.3037" height="1.75026" fill="#CACACA"/>
<path d="M90.2522 143.852H126.787V145.602H90.2522V143.852Z" fill="#CACACA"/>
<path d="M90.2522 147.352H129.992V149.103H90.2522V147.352Z" fill="#CACACA"/>
<path d="M90.2522 151.072H133.838V152.822H90.2522V151.072Z" fill="#CACACA"/>
<rect x="90.2522" y="157.892" width="18.5723" height="1.75026" fill="#CACACA"/>
<path d="M90.2522 161.392H106.292V163.143H90.2522V161.392Z" fill="#CACACA"/>
<path d="M90.2522 164.893H107.699V166.643H90.2522V164.893Z" fill="#CACACA"/>
<path d="M90.2522 168.612H109.387V170.363H90.2522V168.612Z" fill="#CACACA"/>
<path d="M35.5 56.4753C38.1001 56.4753 40.2154 54.3597 40.2154 51.7596C40.2154 49.1595 38.1001 47.0442 35.5 47.0442C32.8999 47.0442 30.7845 49.1595 30.7845 51.7596C30.7845 54.3597 32.8999 56.4753 35.5 56.4753Z" fill="black"/>
<path d="M27.3729 60.6622L27.8949 61.1223C27.8957 61.1228 27.8963 61.1239 27.8973 61.1247C29.9991 62.9787 32.6992 63.9995 35.5 63.9995C38.3009 63.9995 41.0009 62.9785 43.1027 61.1247C43.1037 61.1239 43.1043 61.1231 43.1051 61.1223L43.6271 60.6622L43.6098 60.647C45.7712 58.4942 47 55.5635 47 52.4997C47 46.1587 41.841 41 35.5 41C29.159 41 24 46.1587 24 52.4997C24 55.5635 25.2285 58.4942 27.3902 60.647L27.3729 60.6622ZM25.2337 52.4997C25.2337 46.8388 29.8391 42.2334 35.5 42.2334C41.1609 42.2334 45.7663 46.8388 45.7663 52.4997C45.7663 55.2664 44.6451 57.9118 42.673 59.8395C40.6391 58.2141 38.1137 57.3244 35.5 57.3244C32.8863 57.3244 30.3609 58.2141 28.327 59.8395C26.3549 57.9118 25.2337 55.2664 25.2337 52.4997Z" fill="black"/>
<path d="M40.5001 143.056C41.5176 143.056 42.3453 142.228 42.3453 141.21C42.3453 140.193 41.5176 139.365 40.5001 139.365C39.4827 139.365 38.6549 140.193 38.6549 141.21C38.6549 142.228 39.4827 143.056 40.5001 143.056Z" fill="black"/>
<path d="M37.3198 144.694L37.5241 144.874C37.5244 144.874 37.5247 144.875 37.5251 144.875C38.3475 145.601 39.4041 146 40.5001 146C41.5961 146 42.6527 145.6 43.4751 144.875C43.4756 144.875 43.4758 144.874 43.4761 144.874L43.6804 144.694L43.6736 144.688C44.5194 143.846 45.0002 142.699 45.0002 141.5C45.0002 139.019 42.9814 137 40.5001 137C38.0188 137 36 139.019 36 141.5C36 142.699 36.4807 143.846 37.3266 144.688L37.3198 144.694ZM36.4827 141.5C36.4827 139.285 38.2849 137.483 40.5001 137.483C42.7153 137.483 44.5175 139.285 44.5175 141.5C44.5175 142.583 44.0787 143.618 43.307 144.372C42.5111 143.736 41.5229 143.388 40.5001 143.388C39.4773 143.388 38.4891 143.736 37.6932 144.372C36.9215 143.618 36.4827 142.583 36.4827 141.5Z" fill="black"/>
<path d="M28.5001 154.056C29.5176 154.056 30.3453 153.228 30.3453 152.21C30.3453 151.193 29.5176 150.365 28.5001 150.365C27.4827 150.365 26.6549 151.193 26.6549 152.21C26.6549 153.228 27.4827 154.056 28.5001 154.056Z" fill="black"/>
<path d="M25.3198 155.694L25.5241 155.874C25.5244 155.874 25.5247 155.875 25.5251 155.875C26.3475 156.601 27.4041 157 28.5001 157C29.5961 157 30.6527 156.6 31.4751 155.875C31.4756 155.875 31.4758 155.874 31.4761 155.874L31.6804 155.694L31.6736 155.688C32.5194 154.846 33.0002 153.699 33.0002 152.5C33.0002 150.019 30.9814 148 28.5001 148C26.0188 148 24 150.019 24 152.5C24 153.699 24.4807 154.846 25.3266 155.688L25.3198 155.694ZM24.4827 152.5C24.4827 150.285 26.2849 148.483 28.5001 148.483C30.7153 148.483 32.5175 150.285 32.5175 152.5C32.5175 153.583 32.0787 154.618 31.307 155.372C30.5111 154.736 29.5229 154.388 28.5001 154.388C27.4773 154.388 26.4891 154.736 25.6932 155.372C24.9215 154.618 24.4827 153.583 24.4827 152.5Z" fill="black"/>
<path d="M40.5001 154.056C41.5176 154.056 42.3453 153.228 42.3453 152.21C42.3453 151.193 41.5176 150.365 40.5001 150.365C39.4827 150.365 38.6549 151.193 38.6549 152.21C38.6549 153.228 39.4827 154.056 40.5001 154.056Z" fill="black"/>
<path d="M37.3198 155.694L37.5241 155.874C37.5244 155.874 37.5247 155.875 37.5251 155.875C38.3475 156.601 39.4041 157 40.5001 157C41.5961 157 42.6527 156.6 43.4751 155.875C43.4756 155.875 43.4758 155.874 43.4761 155.874L43.6804 155.694L43.6736 155.688C44.5194 154.846 45.0002 153.699 45.0002 152.5C45.0002 150.019 42.9814 148 40.5001 148C38.0188 148 36 150.019 36 152.5C36 153.699 36.4807 154.846 37.3266 155.688L37.3198 155.694ZM36.4827 152.5C36.4827 150.285 38.2849 148.483 40.5001 148.483C42.7153 148.483 44.5175 150.285 44.5175 152.5C44.5175 153.583 44.0787 154.618 43.307 155.372C42.5111 154.736 41.5229 154.388 40.5001 154.388C39.4773 154.388 38.4891 154.736 37.6932 155.372C36.9215 154.618 36.4827 153.583 36.4827 152.5Z" fill="black"/>
<path d="M28.5001 143.056C29.5176 143.056 30.3453 142.228 30.3453 141.21C30.3453 140.193 29.5176 139.365 28.5001 139.365C27.4827 139.365 26.6549 140.193 26.6549 141.21C26.6549 142.228 27.4827 143.056 28.5001 143.056Z" fill="black"/>
<path d="M25.3198 144.694L25.5241 144.874C25.5244 144.874 25.5247 144.875 25.5251 144.875C26.3475 145.601 27.4041 146 28.5001 146C29.5961 146 30.6527 145.6 31.4751 144.875C31.4756 144.875 31.4758 144.874 31.4761 144.874L31.6804 144.694L31.6736 144.688C32.5194 143.846 33.0002 142.699 33.0002 141.5C33.0002 139.019 30.9814 137 28.5001 137C26.0188 137 24 139.019 24 141.5C24 142.699 24.4807 143.846 25.3266 144.688L25.3198 144.694ZM24.4827 141.5C24.4827 139.285 26.2849 137.483 28.5001 137.483C30.7153 137.483 32.5175 139.285 32.5175 141.5C32.5175 142.583 32.0787 143.618 31.307 144.372C30.5111 143.736 29.5229 143.388 28.5001 143.388C27.4773 143.388 26.4891 143.736 25.6932 144.372C24.9215 143.618 24.4827 142.583 24.4827 141.5Z" fill="black"/>
<g opacity="0.35">
<path d="M18 155.106V139.135C18.0014 138.581 18.1477 138.038 18.4243 137.558C18.7009 137.079 19.0983 136.68 19.5768 136.402L33.4233 128.421C33.9031 128.145 34.4467 128 35 128C35.5533 128 36.0969 128.145 36.5768 128.421L50.4105 136.402C50.8914 136.679 51.2912 137.077 51.5702 137.556C51.8491 138.036 51.9973 138.58 52 139.135V155.106C51.9999 155.66 51.8541 156.204 51.5774 156.684C51.3006 157.163 50.9026 157.562 50.4233 157.839L36.5768 165.821C36.0969 166.096 35.5533 166.241 35 166.241C34.4467 166.241 33.9031 166.096 33.4233 165.821L19.5895 157.835C19.1075 157.56 18.7066 157.164 18.4275 156.684C18.1483 156.205 18.0009 155.661 18 155.106V155.106ZM49.9558 139.135C49.9552 138.938 49.9031 138.744 49.8047 138.574C49.7063 138.403 49.565 138.261 49.3948 138.162L35.561 130.176C35.3903 130.078 35.1969 130.026 35 130.026C34.8031 130.026 34.6097 130.078 34.439 130.176L20.6053 138.162C20.435 138.261 20.2937 138.403 20.1953 138.574C20.0969 138.744 20.0448 138.938 20.0443 139.135V155.106C20.0448 155.303 20.0969 155.497 20.1953 155.668C20.2937 155.838 20.435 155.98 20.6053 156.08L34.439 164.065C34.6097 164.163 34.8031 164.215 35 164.215C35.1969 164.215 35.3903 164.163 35.561 164.065L49.3948 156.08C49.565 155.98 49.7063 155.838 49.8047 155.668C49.9031 155.497 49.9552 155.303 49.9558 155.106V139.135Z" fill="black"/>
</g>
<rect x="0.25" y="0.25" width="199.5" height="199.5" stroke="black" stroke-width="0.5"/>
</svg>
